<svg id="Layer_1" data-name="Layer 1" xmlns="http://www.w3.org/2000/svg" viewBox="0 0 32 32"><defs><style>.cls-1{fill:#8c87a8;}</style></defs><path class="cls-1" d="M8.43,21.8A1.74,1.74,0,0,1,6.7,23.54H6.13A1.75,1.75,0,0,1,4.39,21.8v-.57A1.73,1.73,0,0,1,6.13,19.5H6.7a1.72,1.72,0,0,1,1.73,1.73Zm6.35-2.3a1.73,1.73,0,0,0-1.73-1.74h-.58a1.74,1.74,0,0,0-1.73,1.74v2.3a1.75,1.75,0,0,0,1.73,1.74h.58a1.74,1.74,0,0,0,1.73-1.74Zm6.35-2.31a1.74,1.74,0,0,0-1.73-1.74h-.58a1.75,1.75,0,0,0-1.73,1.74V21.8a1.75,1.75,0,0,0,1.73,1.74h.58a1.74,1.74,0,0,0,1.73-1.74Zm6.35-1.74a1.73,1.73,0,0,0-1.73-1.73h-.58a1.74,1.74,0,0,0-1.73,1.73V21.8a1.75,1.75,0,0,0,1.73,1.74h.58a1.74,1.74,0,0,0,1.73-1.74ZM5.12,17.91l3.09-1.52a8.61,8.61,0,0,1,2.25-.74L14.14,15a9.54,9.54,0,0,0,4.24-1.9l1.83-1.44a8.38,8.38,0,0,1,4.3-1.75l2.69-.29A.59.59,0,0,0,27.71,9a.58.58,0,0,0-.64-.51l-2.69.29a9.52,9.52,0,0,0-4.88,2l-1.83,1.44a8.4,8.4,0,0,1-3.74,1.67l-3.67.65a9.61,9.61,0,0,0-2.56.84L4.61,16.87a.59.59,0,0,0-.26.78.57.57,0,0,0,.77.26Z"/></svg>