<svg id="Layer_1" data-name="Layer 1" xmlns="http://www.w3.org/2000/svg" viewBox="0 0 32 32"><defs><style>.cls-1{fill:#8c87a8;}</style></defs><path class="cls-1" d="M20.06,17v3.48a.68.68,0,0,0,.58.58H27V16.41H20.64A.68.68,0,0,0,20.06,17Zm1.33,1.33a.57.57,0,0,1,.53-.15.19.19,0,0,1,.1,0l.1.05a.71.71,0,0,1,.09.07.58.58,0,0,1,.17.41.78.78,0,0,1,0,.22.63.63,0,0,1-.13.2l-.09.07a.31.31,0,0,1-.1.05.19.19,0,0,1-.1,0h-.23a.23.23,0,0,1-.11,0l-.1-.05-.09-.07a.82.82,0,0,1-.12-.2.54.54,0,0,1-.05-.22A.63.63,0,0,1,21.39,18.32Z"/><path class="cls-1" d="M25.27,10H6.73A1.75,1.75,0,0,0,5,11.78V25.69a1.75,1.75,0,0,0,1.75,1.75H25.27A1.75,1.75,0,0,0,27,25.69V22.8a.59.59,0,0,0-.59-.59h-5.2a2.33,2.33,0,0,1-2.33-2.33v-2.3a2.34,2.34,0,0,1,2.33-2.33h5.2a.58.58,0,0,0,.59-.59V11.78A1.75,1.75,0,0,0,25.27,10Z"/><polygon class="cls-1" points="9.76 8.87 17.25 4.56 17.25 7.8 23.54 6.22 23.54 8.87 9.76 8.87"/></svg>