<svg id="Layer_1" data-name="Layer 1" xmlns="http://www.w3.org/2000/svg" viewBox="0 0 32 32"><defs><style>.cls-1{fill:#8c87a8;}</style></defs><path class="cls-1" d="M21,11.27H19.63V4.68a1.81,1.81,0,0,0-1.8-1.8H14.6a1.81,1.81,0,0,0-1.81,1.8v6.59H11.41a3,3,0,0,0-3,3V25.09a3,3,0,0,0,3,3H12a1.2,1.2,0,1,0,2.4,0H18a1.2,1.2,0,1,0,2.4,0H21a3,3,0,0,0,3-3V14.28A3,3,0,0,0,21,11.27ZM13.21,22.69a.6.6,0,1,1-1.2,0v-6a.6.6,0,0,1,1.2,0Zm3.6,1.2a.6.6,0,0,1-1.2,0V15.48a.6.6,0,0,1,1.2,0ZM14,11.27V4.68a.6.6,0,0,1,.6-.6h3.23a.6.6,0,0,1,.6.6v6.59Zm6.42,11.42a.6.6,0,0,1-1.2,0v-6a.6.6,0,0,1,1.2,0Z"/></svg>