<svg id="Layer_1" data-name="Layer 1" xmlns="http://www.w3.org/2000/svg" viewBox="0 0 32 32"><defs><style>.cls-1{fill:#8c87a8;}</style></defs><path class="cls-1" d="M12.37,4.62a2.78,2.78,0,0,0-2.8,2.81v15h9.5a.47.47,0,0,1,.47.47v1.87a2.63,2.63,0,0,0,2.13,2.59.35.35,0,0,1,.14.06h.38a2.63,2.63,0,0,0,2.65-2.65V7.43a3.7,3.7,0,0,1,1.34-2.81ZM12.1,9.3h0a.17.17,0,0,1,.1,0h4.36a.47.47,0,1,1,0,.93H12.22a.47.47,0,1,1-.12-.93Zm0,3.11H22.19a.48.48,0,0,1,.48.47.48.48,0,0,1-.47.47h-10a.47.47,0,0,1-.53-.41A.48.48,0,0,1,12.1,12.41Zm0,3.12H22.19a.47.47,0,1,1,0,.94h-10a.47.47,0,1,1-.12-.94Zm0,3.12h4.48a.46.46,0,0,1,.47.46.47.47,0,0,1-.46.48H12.22a.48.48,0,0,1-.53-.41A.47.47,0,0,1,12.1,18.65ZM5.82,23.33v1.4a2.64,2.64,0,0,0,2.65,2.65H19.85a3.54,3.54,0,0,1-1.24-2.65v-1.4Z"/></svg>