<svg id="Layer_1" data-name="Layer 1" xmlns="http://www.w3.org/2000/svg" viewBox="0 0 32 32"><defs><style>.cls-1{fill:#8c87a8;}</style></defs><path class="cls-1" d="M19.25,22.8V21.51a4.71,4.71,0,0,1-.52-.21l-.91.9a.51.51,0,0,1-.74,0L15,20.15a.53.53,0,0,1,0-.74l.91-.91c-.08-.17-.15-.34-.22-.52H14.43a.52.52,0,0,1-.52-.52V14.54a.52.52,0,0,1,.52-.52h1.28c.07-.18.14-.35.22-.52L15,12.59a.52.52,0,0,1,0-.73L17.08,9.8a.53.53,0,0,1,.74,0l.91.9a4.71,4.71,0,0,1,.52-.21V9.2a.52.52,0,0,1,.52-.52h.93V5a.52.52,0,0,0-.52-.52H8.88V6.93a1.76,1.76,0,0,1-2,2H4.5V27A.52.52,0,0,0,5,27.5H20.18A.52.52,0,0,0,20.7,27V23.32h-.93A.52.52,0,0,1,19.25,22.8Z"/><path class="cls-1" d="M7.85,7.06V4.5L4.5,7.85H7.06A.8.8,0,0,0,7.85,7.06Z"/><path class="cls-1" d="M26.36,15.07a.52.52,0,0,1-.5-.38,5.05,5.05,0,0,0-.43-1,.52.52,0,0,1,.09-.62l.8-.81L25,10.9l-.8.81a.55.55,0,0,1-.63.09,4.67,4.67,0,0,0-1-.43.52.52,0,0,1-.38-.5V9.73H20.29v1.14a.51.51,0,0,1-.38.5,4.67,4.67,0,0,0-1,.43.53.53,0,0,1-.62-.09l-.81-.81-1.32,1.32.81.81a.51.51,0,0,1,.08.62,4.53,4.53,0,0,0-.42,1,.54.54,0,0,1-.51.38H15v1.86h1.14a.54.54,0,0,1,.51.38,4.53,4.53,0,0,0,.42,1,.51.51,0,0,1-.08.62l-.81.81,1.32,1.32.81-.81a.53.53,0,0,1,.62-.09,4.67,4.67,0,0,0,1,.43.51.51,0,0,1,.38.5v1.14h1.87V21.13a.52.52,0,0,1,.38-.5,4.48,4.48,0,0,0,1-.43.55.55,0,0,1,.63.09l.8.81,1.32-1.32-.8-.81a.52.52,0,0,1-.09-.62,5.05,5.05,0,0,0,.43-1,.52.52,0,0,1,.5-.38H27.5V15.07ZM21.23,19.5A3.5,3.5,0,1,1,24.72,16,3.5,3.5,0,0,1,21.23,19.5Z"/><path class="cls-1" d="M21.23,13.55A2.45,2.45,0,1,0,23.68,16,2.45,2.45,0,0,0,21.23,13.55Z"/></svg>